<svg width="53" height="34" viewBox="0 0 53 34" fill="none" xmlns="http://www.w3.org/2000/svg">
<path fill-rule="evenodd" clip-rule="evenodd" d="M52.2879 20.98C42.522 10.8391 32.5684 0.509766 29.3756 0.509766C26.3708 0.509766 16.4172 10.8391 6.65129 20.98H6.46359C6.46359 21.1684 6.65129 21.1684 6.65129 21.1684H6.83931C8.34156 20.2295 15.2903 14.9707 18.1074 14.9707C19.0466 14.9707 20.5488 15.5341 22.2391 16.473C19.9854 18.727 18.1074 20.7926 17.9197 20.9803C17.9197 21.1687 17.9197 21.1687 18.1074 21.1687C19.0466 20.6049 21.3003 18.9147 23.7417 17.4121C26.3704 19.1024 29.0002 20.9803 29.3752 21.1687H29.5633C29.939 20.9803 32.5681 19.1024 35.1975 17.4121C37.6389 18.9147 39.8926 20.6049 40.8311 21.1687C40.8311 21.1687 41.0191 21.1687 41.0191 20.9803C40.8311 20.7926 38.7654 18.727 36.512 16.473C38.2023 15.5345 39.8926 14.9707 40.8311 14.9707C43.6485 14.9707 50.5973 20.2295 52.0995 21.1684H52.2875C52.2875 21.1684 52.4752 21.1684 52.4752 20.98H52.2879ZM29.3752 3.8903C30.6901 3.8903 32.7561 4.82944 34.6341 5.95597C33.3195 6.33169 31.4416 7.83426 29.3752 9.71222C27.4973 7.83426 25.4316 6.33169 24.3048 5.95597C26.1827 4.82944 28.2487 3.8903 29.3752 3.8903ZM23.7417 15.1584C21.8637 13.4682 19.7977 11.9659 18.4828 11.5902C20.5488 10.2756 22.4268 9.3365 23.7417 9.3365C24.6805 9.3365 26.3704 10.0876 28.061 11.0268C26.3704 12.5293 23.9294 15.1584 23.7417 15.1584ZM29.3752 20.7923C28.9998 20.4169 27.3096 18.539 25.2436 16.4726C26.9339 15.5341 28.4364 14.9704 29.3752 14.9704C30.5021 14.9704 32.0047 15.5338 33.6949 16.4726C31.6293 18.5393 29.9393 20.4172 29.3752 20.7923ZM35.1978 15.1584C35.0098 15.1584 32.5684 12.5293 30.8781 11.0268C32.5684 10.0876 34.259 9.3365 35.1978 9.3365C36.3246 9.3365 38.3903 10.2756 40.4563 11.5902C39.1414 11.9659 37.0758 13.4682 35.1978 15.1584ZM6.46359 31.31H2.33193L4.3976 27.9294L6.46359 31.31ZM0.265625 33.1876H1.20477L1.95589 31.8727H6.83899L7.59011 33.1876H8.34124L4.96102 27.178H3.83418L0.265625 33.1876ZM15.8537 30.1825V27.9291H19.61C20.7365 27.9291 20.9245 28.1168 20.9245 28.6806V29.2437C20.9245 29.9951 20.5488 30.1825 19.7977 30.1825H15.8537ZM15.1026 33.1876H15.8537V30.7462H19.7977C20.5491 30.7462 20.9245 30.9339 20.9245 31.8727V33.1876H21.6757V31.685C21.6757 31.1219 21.488 30.7462 20.7365 30.5585C21.3003 30.3702 21.8637 30.1825 21.8637 29.432V28.8683C21.8637 27.7417 21.488 27.178 19.7977 27.178H15.1026V33.1876Z" fill="#3B5998"/>
</svg>
